<svg width="162" height="162" viewBox="0 0 162 162" fill="none" xmlns="http://www.w3.org/2000/svg">
<circle cx="80.9476" cy="80.9476" r="80.9476" fill="#EFEFEF"/>
<mask id="mask0_245_4702" style="mask-type:alpha" maskUnits="userSpaceOnUse" x="0" y="0" width="162" height="162">
<circle cx="80.9476" cy="80.9476" r="80.9476" fill="#CAC8C8"/>
</mask>
<g mask="url(#mask0_245_4702)">
<path fill-rule="evenodd" clip-rule="evenodd" d="M80.977 92.6278C96.875 92.6278 109.763 79.7398 109.763 63.8419C109.763 47.9439 96.875 35.056 80.977 35.056C65.0791 35.056 52.1912 47.9439 52.1912 63.8419C52.1912 79.7398 65.0791 92.6278 80.977 92.6278ZM80.977 104.142C49.1811 104.142 23.4053 129.918 23.4053 161.713V167.471C23.4053 170.651 25.9829 173.228 29.1625 173.228H132.792C135.971 173.228 138.549 170.651 138.549 167.471V161.713C138.549 129.918 112.773 104.142 80.977 104.142Z" fill="#CAC8C8"/>
</g>
</svg>
